<svg width="48" height="48" viewBox="-2.664 0 48 48.336" xmlns="http://www.w3.org/2000/svg"><path d="M42.672 14.28a4.8 4.8 0 0 0 -0.528 -2.136 4.8 4.8 0 0 0 -1.536 -1.512l-17.04 -9.84a4.08 4.08 0 0 0 -4.536 0.048C16.776 2.184 5.448 8.664 2.088 10.632A3.84 3.84 0 0 0 0 14.28v19.776q0 1.2 0.504 2.088a4.8 4.8 0 0 0 1.56 1.536c3.384 1.944 14.688 8.448 16.944 9.792a4.32 4.32 0 0 0 4.536 0.048l17.04 -9.84a4.8 4.8 0 0 0 1.56 -1.536 4.8 4.8 0 0 0 0.504 -2.088V14.28" fill="#f79c1c"/><path d="M23.52 0.864a4.32 4.32 0 0 0 -4.536 0.048L2.064 10.656A3.84 3.84 0 0 0 0 14.28v19.728q0 1.2 0.504 2.088a4.8 4.8 0 0 0 1.56 1.536l3.36 1.944L36.6 8.4z" fill="#f77c1a"/><text x="21" y="38" font-family="Arial, Helvetica, sans-serif" font-size="40" font-weight="bold" fill="#fff" text-anchor="middle">S</text><text x="35" y="28" font-family="Arial, Helvetica, sans-serif" font-size="14" font-weight="bold" fill="#fff" text-anchor="middle">#</text></svg>